<svg width="18" height="17" viewBox="0 0 18 17" fill="none" xmlns="http://www.w3.org/2000/svg">
<path d="M2.98365 15.8025C3.43698 15.9399 4.04928 15.9399 5.09012 15.9399H12.9142C13.955 15.9399 14.5673 15.9399 15.0207 15.8025M2.98365 15.8025C2.88645 15.7731 2.79656 15.7373 2.71132 15.6939C2.28665 15.4775 1.94138 15.1322 1.725 14.7075C1.479 14.2248 1.479 13.5927 1.479 12.3287V4.50467C1.479 3.24066 1.479 2.60865 1.725 2.12587C1.94138 1.7012 2.28665 1.35593 2.71132 1.13955C3.1941 0.893555 3.82611 0.893555 5.09012 0.893555H12.9142C14.1782 0.893555 14.8102 0.893555 15.293 1.13955C15.7177 1.35593 16.0629 1.7012 16.2793 2.12587C16.5253 2.60865 16.5253 3.24066 16.5253 4.50467V12.3287C16.5253 13.5927 16.5253 14.2248 16.2793 14.7075C16.0629 15.1322 15.7177 15.4775 15.293 15.6939C15.2077 15.7373 15.1179 15.7731 15.0207 15.8025M2.98365 15.8025C2.9839 15.1936 2.98755 14.8715 3.04146 14.6005C3.27891 13.4067 4.21207 12.4735 5.40582 12.2361C5.69651 12.1783 6.04607 12.1783 6.74521 12.1783H11.2591C11.9582 12.1783 12.3078 12.1783 12.5985 12.2361C13.7922 12.4735 14.7254 13.4067 14.9628 14.6005C15.0168 14.8715 15.0204 15.1936 15.0207 15.8025M12.0114 6.53592C12.0114 8.19788 10.6641 9.54517 9.00215 9.54517C7.34018 9.54517 5.99289 8.19788 5.99289 6.53592C5.99289 4.87395 7.34018 3.52666 9.00215 3.52666C10.6641 3.52666 12.0114 4.87395 12.0114 6.53592Z" stroke="currentColor" stroke-width="1.50463" stroke-linecap="round" stroke-linejoin="round"/>
</svg>
