<svg width="16" height="16" viewBox="0 0 16 16" fill="none" xmlns="http://www.w3.org/2000/svg">
<path d="M8.00228 4.63195V10.6505M4.99302 7.64121H11.0115M4.84256 14.412H11.162C12.426 14.412 13.058 14.412 13.5408 14.1661C13.9655 13.9497 14.3107 13.6044 14.5271 13.1797C14.7731 12.6969 14.7731 12.0649 14.7731 10.8009V4.48149C14.7731 3.21748 14.7731 2.58548 14.5271 2.10269C14.3107 1.67802 13.9655 1.33275 13.5408 1.11637C13.058 0.870377 12.426 0.870377 11.162 0.870377H4.84256C3.57855 0.870377 2.94655 0.870377 2.46376 1.11637C2.03909 1.33275 1.69382 1.67802 1.47744 2.10269C1.23145 2.58548 1.23145 3.21748 1.23145 4.48149V10.8009C1.23145 12.0649 1.23145 12.6969 1.47744 13.1797C1.69382 13.6044 2.03909 13.9497 2.46376 14.1661C2.94655 14.412 3.57855 14.412 4.84256 14.412Z" stroke="currentColor" stroke-width="1.50463" stroke-linecap="round" stroke-linejoin="round"/>
</svg>
