<svg width="390" height="320" viewBox="0 0 390 390" fill="none" xmlns="http://www.w3.org/2000/svg">
<g clip-path="url(#clip0_137_1341)">
<path d="M0.5 297.948H389.389V297.755H0.5V297.948Z" fill="#ECECEC"/>
<mask id="mask0_137_1341" style="mask-type:luminance" maskUnits="userSpaceOnUse" x="0" y="0" width="990" height="390">
<path d="M0.5 0.333405H389.389V389.222H0.5V0.333405Z" fill="white"/>
</mask>
<g mask="url(#mask0_137_1341)">
<path d="M34.6561 43.2688C32.315 43.2688 30.411 45.1728 30.411 47.5139V258.627C30.411 260.968 32.315 262.872 34.6561 262.872H184.844C187.184 262.872 189.089 260.968 189.089 258.627V47.5139C189.089 45.1728 187.184 43.2688 184.844 43.2688H34.6561ZM184.844 263.066H34.6561C32.2084 263.066 30.2166 261.075 30.2166 258.627V47.5139C30.2166 45.0662 32.2084 43.0743 34.6561 43.0743H184.844C187.291 43.0743 189.283 45.0662 189.283 47.5139V258.627C189.283 261.075 187.291 263.066 184.844 263.066Z" fill="#ECECEC"/>
<path d="M202.887 43.2688C200.547 43.2688 198.643 45.1728 198.643 47.5139V258.627C198.643 260.968 200.547 262.872 202.887 262.872H353.075C355.416 262.872 357.32 260.968 357.32 258.627V47.5139C357.32 45.1728 355.416 43.2688 353.075 43.2688H202.887ZM353.075 263.066H202.887C200.44 263.066 198.448 261.075 198.448 258.627V47.5139C198.448 45.0662 200.44 43.0743 202.887 43.0743H353.075C355.523 43.0743 357.515 45.0662 357.515 47.5139V258.627C357.515 261.075 355.523 263.066 353.075 263.066Z" fill="#ECECEC"/>
<path d="M136.173 305.356H156.393V305.162H136.173V305.356Z" fill="#ECECEC"/>
<path d="M41.3014 303.245H83.3807V303.051H41.3014V303.245Z" fill="#ECECEC"/>
<path d="M114.927 312.578H135.395V312.384H114.927V312.578Z" fill="#ECECEC"/>
<path d="M201.343 311.272H231.546V311.078H201.343V311.272Z" fill="#ECECEC"/>
<path d="M238.471 311.272H246.788V311.078H238.471V311.272Z" fill="#ECECEC"/>
<path d="M307.991 307.988H350.424V307.794H307.991V307.988Z" fill="#ECECEC"/>
<path d="M175.739 193.092H60.3291V71.3064H175.739V193.092Z" fill="#E7E7E7"/>
<path d="M188.107 67.3648H52.8581C52.2257 67.3648 51.7124 67.8781 51.7124 68.5105C51.7124 69.1436 52.2257 69.6561 52.8581 69.6561H188.107C188.739 69.6561 189.252 69.1436 189.252 68.5105C189.252 67.8781 188.739 67.3648 188.107 67.3648Z" fill="#E7E7E7"/>
<path d="M180.636 193.092H62.6173V71.3064H180.636V193.092Z" fill="#F0F0F0"/>
<path d="M175.739 193.092H60.3291V197.642H175.739V193.092Z" fill="#E7E7E7"/>
<path d="M188.794 193.092H70.7755V197.642H188.794V193.092Z" fill="#F0F0F0"/>
<path d="M69.4734 78.1618H173.78V186.236H69.4734V78.1618Z" fill="#FAFAFA"/>
<path d="M93.1516 186.236L133.391 78.1623H152.386L112.147 186.236H93.1516Z" fill="white"/>
<path d="M116.228 186.236L156.467 78.1623H163.872L123.633 186.236H116.228Z" fill="white"/>
<path d="M172.909 78.1618H173.78V186.236H172.909V78.1618Z" fill="#E7E7E7"/>
<mask id="mask1_137_1341" style="mask-type:luminance" maskUnits="userSpaceOnUse" x="52" y="65" width="52" height="111">
<path d="M52.1501 65.3144H103.437V175.318H52.1501V65.3144Z" fill="white"/>
</mask>
<g mask="url(#mask1_137_1341)">
<g opacity="0.600006">
<path d="M66.6419 175.318H52.1504L59.9608 65.3144H74.4524L66.6419 175.318Z" fill="#F0F0F0"/>
<path d="M72.2873 175.318H60.9971L68.8075 65.3144H80.0977L72.2873 175.318Z" fill="#E7E7E7"/>
<path d="M81.1338 175.318H66.6422L74.4527 65.3144H88.9442L81.1338 175.318Z" fill="#F0F0F0"/>
<path d="M86.779 175.318H75.4888L83.2992 65.3144H94.5894L86.779 175.318Z" fill="#E7E7E7"/>
<path d="M95.6255 175.318H81.1339L88.9444 65.3144H103.436L95.6255 175.318Z" fill="#F0F0F0"/>
</g>
</g>
<mask id="mask2_137_1341" style="mask-type:luminance" maskUnits="userSpaceOnUse" x="157" y="65" width="30" height="111">
<path d="M157.453 65.3144H186.436V175.318H157.453V65.3144Z" fill="white"/>
</mask>
<g mask="url(#mask2_137_1341)">
<g opacity="0.600006">
<path d="M178.247 175.318H186.437L182.022 65.3152H173.833L178.247 175.318Z" fill="#F0F0F0"/>
<path d="M175.056 175.318H181.437L177.023 65.3152H170.643L175.056 175.318Z" fill="#E7E7E7"/>
<path d="M170.057 175.318H178.247L173.832 65.3152H165.643L170.057 175.318Z" fill="#F0F0F0"/>
<path d="M166.867 175.318H173.248L168.833 65.3152H162.453L166.867 175.318Z" fill="#E7E7E7"/>
<path d="M161.868 175.318H170.058L165.643 65.3152H157.454L161.868 175.318Z" fill="#F0F0F0"/>
</g>
</g>
<path d="M332.343 171.42H252.538V65.3145H332.343V171.42Z" fill="#E7E7E7"/>
<path d="M338.406 171.42H255.029V65.3145H338.406V171.42Z" fill="#F5F5F5"/>
<path d="M335.019 75.2475L265.835 69.6553L258.412 161.491L327.595 167.084L335.019 75.2475Z" fill="white"/>
<path d="M335.018 75.2475L333.315 75.1098L325.891 166.945L327.595 167.084L335.018 75.2475Z" fill="#E7E7E7"/>
<path d="M342.803 297.754H298.229V211.054H342.803V297.754Z" fill="#F5F5F5"/>
<path d="M342.803 297.754H339.127V211.054H342.803V297.754Z" fill="#F0F0F0"/>
<path d="M199.031 250.213H301.665V213.528H199.031V250.213Z" fill="#E7E7E7"/>
<path d="M203.979 217.557H342.803V211.054H203.979V217.557Z" fill="#F0F0F0"/>
<path d="M203.979 297.754H159.406V211.054H203.979V297.754Z" fill="#F5F5F5"/>
<path d="M171.945 297.754H150.292V249.405C150.292 243.481 155.094 238.679 161.018 238.679H161.219C167.143 238.679 171.945 243.481 171.945 249.405V297.754Z" fill="#E7E7E7"/>
<path d="M203.979 297.754H200.303V211.054H203.979V297.754Z" fill="#F0F0F0"/>
<path d="M254.15 211.054H244.533L246.873 192.337H256.489L254.15 211.054Z" fill="#F0F0F0"/>
<path d="M256.276 211.054H246.66L248.999 192.337H258.616L256.276 211.054Z" fill="#F5F5F5"/>
<path d="M257.446 201.695H247.829L248.999 192.337H258.616L257.446 201.695Z" fill="#F0F0F0"/>
<path d="M222.11 199.455H290.134C290.701 199.455 291.141 198.958 291.07 198.395L285.828 156.456C285.77 155.984 285.368 155.63 284.892 155.63H216.868C216.301 155.63 215.861 156.127 215.932 156.69L221.174 198.629C221.233 199.101 221.635 199.455 222.11 199.455Z" fill="#F0F0F0"/>
<path d="M223.121 199.455H291.145C291.712 199.455 292.152 198.958 292.082 198.395L286.839 156.456C286.78 155.984 286.379 155.63 285.903 155.63H217.878C217.311 155.63 216.872 156.127 216.943 156.69L222.185 198.629C222.244 199.101 222.645 199.455 223.121 199.455Z" fill="#F5F5F5"/>
<path d="M289.887 197.137L284.98 157.882C284.963 157.75 284.851 157.651 284.718 157.651H219.399C219.24 157.651 219.117 157.79 219.137 157.947L224.045 197.202C224.061 197.335 224.173 197.433 224.306 197.433H289.625C289.784 197.433 289.906 197.294 289.887 197.137Z" fill="#E7E7E7"/>
<path d="M282.917 197.435L265.65 157.652H250.511L267.778 197.435H282.917Z" fill="#ECECEC"/>
<path d="M264.862 197.435L247.596 157.652H242.14L259.406 197.435H264.862Z" fill="#ECECEC"/>
<path d="M250.925 209.299H263.468C264.33 209.299 265.028 209.998 265.028 210.86V211.053H249.365V210.86C249.365 209.998 250.064 209.299 250.925 209.299Z" fill="#F5F5F5"/>
<path d="M242.112 209.299H249.618C250.48 209.299 251.178 209.998 251.178 210.86V211.053H240.553V210.86C240.553 209.998 241.251 209.299 242.112 209.299Z" fill="#F0F0F0"/>
<path d="M282.338 211.055H233.91L232.601 207.167H276.037L282.338 211.055Z" fill="#F5F5F5"/>
<path d="M239.239 211.055H231.238L230.156 207.167H238.156L239.239 211.055Z" fill="#F0F0F0"/>
<path d="M213.295 207.802H220.576C222.371 207.802 223.827 209.258 223.827 211.053H210.044C210.044 209.258 211.499 207.802 213.295 207.802Z" fill="#F0F0F0"/>
<path d="M69.8997 297.754H83.4089V234.962H69.8997V297.754Z" fill="#E1E1E1"/>
<path d="M129.878 297.754H75.2598L68.5063 223.556H123.125L129.878 297.754Z" fill="#E7E7E7"/>
<path d="M132.708 297.754H78.0885L71.3358 223.556H125.954L132.708 297.754Z" fill="#F0F0F0"/>
<path d="M85.5543 289.541L80.2965 231.769H118.488L123.746 289.541H85.5543Z" fill="white"/>
</g>
<mask id="mask3_137_1341" style="mask-type:luminance" maskUnits="userSpaceOnUse" x="0" y="0" width="390" height="390">
<path d="M0.5 0.333405H389.389V389.222H0.5V0.333405Z" fill="white"/>
</mask>
<g mask="url(#mask3_137_1341)">
<path d="M272.781 136.639C269.567 163.845 289.072 205.62 255.438 220.334C227.232 232.674 203.662 214.821 180.716 239.51C163.996 257.501 135.009 286.59 113.127 256.449C96.014 232.876 95.132 197.691 103.399 171C109.892 150.036 130.95 106.931 158.379 103.315C189.203 99.2515 208.738 139.677 225.655 98.8805C235.837 74.3276 257.325 45.3134 290.838 65.2689C304.065 73.1446 300.258 82.9127 293.251 93.0791C282.91 108.085 274.992 117.924 272.781 136.639Z" fill="#0C8FFC"/>
<mask id="mask4_137_1341" style="mask-type:luminance" maskUnits="userSpaceOnUse" x="98" y="58" width="202" height="212">
<path d="M98.321 58.62H299.641V269.5H98.321V58.62Z" fill="white"/>
</mask>
<g mask="url(#mask4_137_1341)">
<g opacity="0.899994">
<path d="M272.781 136.639C269.567 163.845 289.072 205.62 255.438 220.334C227.232 232.674 203.662 214.821 180.716 239.51C163.996 257.501 135.009 286.59 113.127 256.449C96.014 232.876 95.132 197.691 103.399 171C109.892 150.036 130.95 106.931 158.379 103.315C189.203 99.2515 208.738 139.677 225.655 98.8805C235.837 74.3276 257.325 45.3134 290.838 65.2689C304.065 73.1446 300.258 82.9127 293.251 93.0791C282.91 108.085 274.992 117.924 272.781 136.639Z" fill="white"/>
</g>
</g>
</g>
<mask id="mask5_137_1341" style="mask-type:luminance" maskUnits="userSpaceOnUse" x="0" y="0" width="390" height="390">
<path d="M0.5 0.333405H389.389V389.222H0.5V0.333405Z" fill="white"/>
</mask>
<g mask="url(#mask5_137_1341)">
<path d="M345.747 324.074C345.747 328.938 278.231 332.881 194.945 332.881C111.659 332.881 44.142 328.938 44.142 324.074C44.142 319.21 111.659 315.267 194.945 315.267C278.231 315.267 345.747 319.21 345.747 324.074Z" fill="#F5F5F5"/>
</g>
<path d="M77.1224 148.383L76.7833 138.02L77.5611 137.994L77.9002 148.357L77.1224 148.383Z" fill="#0C8FFC"/>
<path d="M76.6531 134.005L76.4921 129.08L77.2698 129.054L77.4308 133.979L76.6531 134.005Z" fill="#0C8FFC"/>
<mask id="mask6_137_1341" style="mask-type:luminance" maskUnits="userSpaceOnUse" x="0" y="0" width="390" height="390">
<path d="M0.5 0.333405H389.389V389.222H0.5V0.333405Z" fill="white"/>
</mask>
<g mask="url(#mask6_137_1341)">
<path d="M87.7656 204.009H236.214C239.571 204.009 242.229 201.262 242.119 197.904L238.815 96.6109C238.705 93.2532 235.868 90.5061 232.511 90.5061H84.0618C80.7041 90.5061 78.0464 93.2532 78.1569 96.6109L81.4617 197.904C81.5713 201.262 84.4079 204.009 87.7656 204.009Z" fill="#0C8FFC"/>
<path d="M88.2415 204.009H236.69C240.048 204.009 242.705 201.262 242.596 197.904L239.291 96.6111C239.181 93.2535 236.344 90.5064 232.987 90.5064H84.5377C81.18 90.5064 78.5231 93.2535 78.6328 96.6111L81.9376 197.904C82.0472 201.262 84.8838 204.009 88.2415 204.009Z" fill="#0C8FFC"/>
<mask id="mask7_137_1341" style="mask-type:luminance" maskUnits="userSpaceOnUse" x="78" y="90" width="165" height="115">
<path d="M78.6293 90.5058H242.599V204.009H78.6293V90.5058Z" fill="white"/>
</mask>
<g mask="url(#mask7_137_1341)">
<g opacity="0.5">
<path d="M88.2413 204.009H236.69C240.048 204.009 242.705 201.262 242.596 197.904L239.29 96.611C239.181 93.2534 236.344 90.5062 232.987 90.5062H84.5376C81.1799 90.5062 78.523 93.2534 78.6327 96.611L81.9374 197.904C82.0471 201.262 84.8837 204.009 88.2413 204.009Z" fill="white"/>
</g>
</g>
<mask id="mask8_137_1341" style="mask-type:luminance" maskUnits="userSpaceOnUse" x="81" y="93" width="155" height="7">
<path d="M81.0691 93.5586H235.896V99.6633H81.0691V93.5586Z" fill="white"/>
</mask>
<g mask="url(#mask8_137_1341)">
<g opacity="0.5">
<path d="M232.61 93.5587H84.1618C83.9938 93.5587 83.8274 93.5657 83.6633 93.5789C79.8568 93.8916 80.4044 99.6635 84.2342 99.6635H232.936C236.766 99.6635 236.937 93.8916 233.109 93.5789C232.945 93.5657 232.778 93.5587 232.61 93.5587Z" fill="#0C8FFC"/>
</g>
</g>
<path d="M87.9078 96.6109C87.9326 97.384 87.3268 98.0101 86.5536 98.0101C85.7805 98.0101 85.1342 97.384 85.1085 96.6109C85.0836 95.8378 85.6895 95.2117 86.4626 95.2117C87.2358 95.2117 87.8821 95.8378 87.9078 96.6109Z" fill="#FAFAFA"/>
<path d="M92.6682 96.6109C92.6939 97.384 92.0872 98.0101 91.3141 98.0101C90.5418 98.0101 89.8947 97.384 89.869 96.6109C89.8441 95.8378 90.45 95.2117 91.2231 95.2117C91.9962 95.2117 92.6434 95.8378 92.6682 96.6109Z" fill="#FAFAFA"/>
<path d="M97.429 96.6109C97.4539 97.384 96.848 98.0101 96.0749 98.0101C95.3018 98.0101 94.6554 97.384 94.6298 96.6109C94.6049 95.8378 95.2108 95.2117 95.9839 95.2117C96.7562 95.2117 97.4033 95.8378 97.429 96.6109Z" fill="#FAFAFA"/>
<path d="M91.1195 193.899H233.153C234.375 193.899 235.334 192.908 235.294 191.686L232.576 108.386C232.536 107.163 231.512 106.172 230.29 106.172H88.2573C87.0346 106.172 86.0764 107.163 86.1161 108.386L88.8344 191.686C88.8741 192.908 89.8968 193.899 91.1195 193.899Z" fill="white"/>
<mask id="mask9_137_1341" style="mask-type:luminance" maskUnits="userSpaceOnUse" x="126" y="116" width="70" height="68">
<path d="M126.055 116.481H195.354V183.59H126.055V116.481Z" fill="white"/>
</mask>
<g mask="url(#mask9_137_1341)">
<g opacity="0.300003">
<path d="M195.354 183.59H192.762V182.853H194.592L194.533 181.022L195.271 180.999L195.354 183.59Z" fill="#0C8FFC"/>
<path d="M139.074 183.59H134.944V182.853H139.074V183.59ZM147.333 183.59H143.203V182.853H147.333V183.59ZM155.593 183.59H151.462V182.853H155.593V183.59ZM163.852 183.59H159.722V182.853H163.852V183.59ZM172.112 183.59H167.982V182.853H172.112V183.59ZM180.372 183.59H176.241V182.853H180.372V183.59ZM188.631 183.59H184.501V182.853H188.631V183.59Z" fill="#0C8FFC"/>
<path d="M130.814 183.59H128.245L128.161 181.022L128.898 180.999L128.959 182.853H130.814V183.59Z" fill="#0C8FFC"/>
<path d="M126.41 127.333L126.275 123.203L127.012 123.179L127.146 127.309L126.41 127.333ZM126.68 135.593L126.545 131.463L127.282 131.439L127.416 135.569L126.68 135.593ZM126.949 143.853L126.814 139.723L127.551 139.699L127.686 143.829L126.949 143.853ZM127.219 152.113L127.083 147.983L127.82 147.959L127.955 152.089L127.219 152.113ZM127.488 160.373L127.353 156.243L128.09 156.219L128.224 160.349L127.488 160.373ZM127.757 168.633L127.623 164.503L128.36 164.479L128.494 168.609L127.757 168.633ZM128.027 176.892L127.892 172.762L128.629 172.739L128.763 176.869L128.027 176.892Z" fill="#0C8FFC"/>
<path d="M126.14 119.073L126.055 116.481H128.648V117.219H126.817L126.877 119.049L126.14 119.073Z" fill="#0C8FFC"/>
<path d="M136.908 117.219H132.778V116.481H136.908V117.219ZM145.168 117.219H141.037V116.481H145.168V117.219ZM153.427 117.219H149.297V116.481H153.427V117.219ZM161.687 117.219H157.557V116.481H161.687V117.219ZM169.947 117.219H165.816V116.481H169.947V117.219ZM178.206 117.219H174.076V116.481H178.206V117.219ZM186.466 117.219H182.336V116.481H186.466V117.219Z" fill="#0C8FFC"/>
<path d="M192.512 119.073L192.451 117.219H190.595V116.481H193.165L193.248 119.049L192.512 119.073Z" fill="#0C8FFC"/>
<path d="M192.781 127.333L192.647 123.203L193.383 123.179L193.518 127.309L192.781 127.333ZM193.051 135.593L192.916 131.463L193.653 131.439L193.788 135.569L193.051 135.593ZM193.32 143.853L193.186 139.723L193.923 139.699L194.057 143.829L193.32 143.853ZM193.59 152.113L193.455 147.983L194.191 147.959L194.327 152.089L193.59 152.113ZM193.86 160.373L193.725 156.243L194.461 156.219L194.596 160.348L193.86 160.373ZM194.128 168.632L193.994 164.503L194.731 164.479L194.866 168.609L194.128 168.632ZM194.398 176.892L194.264 172.762L195.001 172.739L195.135 176.868L194.398 176.892Z" fill="#0C8FFC"/>
</g>
</g>
<path d="M156.52 135.761C152.345 135.761 148.757 138.714 147.987 142.783L147.857 143.474L147.155 143.519C143.183 143.775 140.172 147.104 140.302 151.098C140.441 155.319 143.987 158.754 148.208 158.754H175.362C176.729 158.754 177.995 158.224 178.928 157.26C179.862 156.296 180.352 155.011 180.307 153.642C180.237 151.511 178.833 149.569 176.814 148.808L176.253 148.596L176.228 147.997C176.064 143.99 172.671 140.731 168.665 140.731C167.725 140.731 166.813 140.909 165.957 141.26L165.192 141.573L164.81 140.84C163.177 137.707 160 135.761 156.52 135.761ZM175.362 160.568H148.208C143.02 160.568 138.66 156.346 138.49 151.158C138.336 146.41 141.742 142.417 146.355 141.779C147.535 137.203 151.706 133.948 156.52 133.948C160.415 133.948 163.99 135.984 166.027 139.311C166.876 139.05 167.76 138.918 168.665 138.918C173.435 138.918 177.504 142.646 177.997 147.343C180.4 148.486 182.033 150.924 182.119 153.583C182.18 155.447 181.51 157.201 180.231 158.522C178.954 159.841 177.224 160.568 175.362 160.568Z" fill="#0C8FFC"/>
<path d="M167.537 151.751L160.048 144.498L153.032 151.751H157.138L157.383 159.249H163.676L163.431 151.751H167.537Z" fill="#0C8FFC"/>
</g>
<mask id="mask10_137_1341" style="mask-type:luminance" maskUnits="userSpaceOnUse" x="0" y="0" width="390" height="390">
<path d="M0.5 0.333405H389.389V389.222H0.5V0.333405Z" fill="white"/>
</mask>
<g mask="url(#mask10_137_1341)">
<path d="M285.902 122.291C286.621 123.321 287.195 124.193 287.789 125.159C288.381 126.103 288.939 127.059 289.481 128.027C290.571 129.958 291.584 131.934 292.512 133.971C293.436 136.007 294.31 138.084 295.031 140.257C295.787 142.403 296.403 144.659 296.862 146.985L297.163 148.759L297.2 148.981L297.242 149.264C297.272 149.536 297.307 149.77 297.319 150.073C297.329 150.372 297.342 150.645 297.32 150.989L297.284 151.481L297.201 152.023C297.15 152.367 297.026 152.786 296.907 153.157C296.752 153.561 296.594 153.949 296.359 154.34C295.923 155.118 295.285 155.811 294.643 156.303C293.309 157.319 292.108 157.61 291.136 157.795C290.151 157.96 289.349 157.956 288.598 157.922C287.854 157.881 287.176 157.8 286.533 157.678C285.254 157.439 284.093 157.12 282.978 156.766C280.756 156.038 278.708 155.168 276.724 154.201C274.734 153.228 272.853 152.2 270.959 150.983L273.195 146.02C277.126 146.986 281.187 148.045 284.927 148.556C285.854 148.69 286.757 148.771 287.562 148.78C288.339 148.795 289.107 148.711 289.234 148.594C289.281 148.557 289.106 148.502 288.588 148.845C288.355 149.011 288.071 149.301 287.881 149.615C287.789 149.784 287.707 149.917 287.656 150.082C287.596 150.197 287.568 150.369 287.538 150.45L287.492 150.7C287.49 150.782 287.474 150.792 287.474 150.83C287.477 150.87 287.456 150.846 287.456 150.858C287.46 150.883 287.44 150.806 287.426 150.754L287.381 150.59L287.03 149.284C285.99 145.779 284.456 142.203 282.662 138.713C281.785 136.958 280.821 135.226 279.841 133.505C279.352 132.643 278.84 131.792 278.336 130.944C277.836 130.119 277.29 129.215 276.835 128.504L285.902 122.291Z" fill="#FFB670"/>
<path d="M274.111 146.409L270.739 143.046L267.383 150.524C267.383 150.524 270.556 152.285 273.386 151.001L274.111 146.409Z" fill="#FFB670"/>
<path d="M265.751 140.368L263.267 146.679L267.383 150.524L270.739 143.046L265.751 140.368Z" fill="#FFB670"/>
<path d="M265.732 189.552L200.975 178.144L212.383 113.387L277.14 124.795L265.732 189.552Z" fill="#0C8FFC"/>
<mask id="mask11_137_1341" style="mask-type:luminance" maskUnits="userSpaceOnUse" x="200" y="113" width="78" height="77">
<path d="M200.975 113.387H277.14V189.552H200.975V113.387Z" fill="white"/>
</mask>
<g mask="url(#mask11_137_1341)">
<g opacity="0.600006">
<path d="M265.732 189.552L200.975 178.144L212.383 113.387L277.14 124.795L265.732 189.552Z" fill="white"/>
</g>
</g>
<path d="M263.136 185.846L204.681 175.548L214.979 117.093L273.434 127.391L263.136 185.846Z" fill="white"/>
<mask id="mask12_137_1341" style="mask-type:luminance" maskUnits="userSpaceOnUse" x="225" y="127" width="23" height="22">
<path d="M225.237 127.015H247.154V148.932H225.237V127.015Z" fill="white"/>
</mask>
<g mask="url(#mask12_137_1341)">
<g opacity="0.300003">
<path d="M246.986 139.874C245.936 145.833 240.254 149.814 234.294 148.764C228.335 147.714 224.355 142.032 225.404 136.072C226.455 130.113 232.137 126.133 238.096 127.182C244.055 128.232 248.036 133.915 246.986 139.874Z" fill="#0C8FFC"/>
</g>
</g>
<mask id="mask13_137_1341" style="mask-type:luminance" maskUnits="userSpaceOnUse" x="204" y="153" width="61" height="33">
<path d="M204.685 153.93H264.967V185.844H204.685V153.93Z" fill="white"/>
</mask>
<g mask="url(#mask13_137_1341)">
<g opacity="0.199997">
<path d="M249.905 153.929L230.312 167.646L221.302 154.782L206.519 165.137L204.685 175.547L263.133 185.843L264.967 175.433L249.905 153.929Z" fill="#0C8FFC"/>
</g>
</g>
<path d="M253.117 98.7331C253.128 99.2503 252.862 99.6758 252.525 99.6828C252.186 99.6898 251.903 99.276 251.892 98.7588C251.882 98.2416 252.147 97.8161 252.486 97.8091C252.823 97.8021 253.107 98.2159 253.117 98.7331Z" fill="#1A2E35"/>
<path d="M252.911 99.6747C252.911 99.6747 251.796 102.685 250.531 104.152C251.464 104.987 253.012 104.565 253.012 104.565L252.911 99.6747Z" fill="#FF5551"/>
<path d="M254.939 95.8229C254.862 95.8361 254.781 95.8213 254.712 95.7739C253.609 95.0124 252.587 95.4044 252.544 95.4231C252.39 95.4853 252.212 95.4099 252.149 95.2551C252.086 95.0996 252.16 94.9238 252.314 94.86C252.369 94.8374 253.673 94.3194 255.058 95.273C255.196 95.3687 255.23 95.5577 255.135 95.6961C255.087 95.7653 255.016 95.8089 254.939 95.8229Z" fill="#1A2E35"/>
<path d="M268.109 100.707C267.781 105.48 268.157 115.121 271.806 117.819C271.806 117.819 270.911 121.712 262.257 122.799C252.74 123.995 257.115 118.646 257.115 118.646C262.154 116.754 261.535 112.917 260.176 109.411L268.109 100.707Z" fill="#FFB670"/>
<path d="M294.123 305.947C293.402 305.889 292.207 305.881 291.771 306.252C291.67 306.339 291.618 306.44 291.614 306.563C291.606 306.847 291.726 306.904 291.765 306.923C292.177 307.121 293.343 306.528 294.123 305.947ZM291.695 307.223C291.674 307.215 291.654 307.207 291.635 307.197C291.48 307.124 291.299 306.952 291.31 306.553C291.317 306.343 291.405 306.164 291.574 306.021C292.307 305.398 294.439 305.671 294.529 305.683C294.589 305.692 294.638 305.733 294.655 305.79C294.672 305.848 294.653 305.91 294.608 305.949C294.11 306.377 292.461 307.488 291.695 307.223Z" fill="#0C8FFC"/>
<path d="M292.717 304.233C292.682 304.22 292.647 304.211 292.612 304.203C292.449 304.168 292.309 304.193 292.181 304.279C292.017 304.391 292.043 304.478 292.053 304.517C292.175 304.93 293.387 305.502 294.202 305.648C293.908 305.226 293.292 304.431 292.717 304.233ZM293.432 305.75C292.685 305.492 291.894 305.054 291.762 304.602C291.724 304.475 291.707 304.233 292.011 304.027C292.207 303.894 292.431 303.853 292.676 303.906C293.614 304.104 294.597 305.687 294.639 305.755C294.668 305.802 294.668 305.861 294.64 305.91C294.613 305.958 294.561 305.987 294.505 305.986C294.238 305.98 293.842 305.892 293.432 305.75Z" fill="#0C8FFC"/>
<path d="M243.446 316.607C243.339 316.607 243.24 316.618 243.153 316.642C243.012 316.68 242.914 316.749 242.855 316.855C242.747 317.043 242.786 317.136 242.826 317.191C243.123 317.605 244.747 317.614 245.939 317.446C245.344 317.141 244.196 316.607 243.446 316.607ZM244.464 317.852C243.64 317.852 242.845 317.738 242.578 317.368C242.485 317.238 242.411 317.018 242.591 316.704C242.691 316.527 242.854 316.408 243.073 316.349C244.142 316.058 246.383 317.336 246.478 317.39C246.533 317.422 246.563 317.484 246.553 317.546C246.542 317.609 246.494 317.658 246.432 317.671C246.023 317.753 245.23 317.852 244.464 317.852Z" fill="#0C8FFC"/>
<path d="M244.837 315.073C244.807 315.073 244.776 315.074 244.746 315.077C244.472 315.105 244.455 315.213 244.449 315.249C244.378 315.684 245.421 316.774 246.212 317.249C246.129 316.744 245.901 315.71 245.365 315.27C245.203 315.137 245.029 315.073 244.837 315.073ZM246.402 317.674C246.381 317.674 246.359 317.67 246.34 317.66C245.565 317.313 244.032 315.925 244.149 315.2C244.176 315.029 244.297 314.818 244.714 314.775C245.024 314.746 245.309 314.832 245.558 315.036C246.374 315.706 246.547 317.435 246.554 317.507C246.559 317.562 246.535 317.615 246.491 317.646C246.464 317.664 246.433 317.674 246.402 317.674Z" fill="#0C8FFC"/>
<path d="M253.458 317.522H247.041L246.402 302.663H252.819L253.458 317.522Z" fill="#FFB670"/>
<path d="M301.438 303.972L295.488 305.607L287.87 291.674L293.82 290.039L301.438 303.972Z" fill="#FFB670"/>
<path d="M294.597 304.955L301.014 301.672C301.249 301.552 301.533 301.611 301.7 301.812L305.427 306.313C305.813 306.78 305.655 307.49 305.11 307.757C302.85 308.865 301.694 309.29 298.872 310.734C297.136 311.623 291.971 315.463 289.365 316.142C286.816 316.806 285.747 314.332 286.753 313.821C291.264 311.528 293.088 307.768 293.85 305.781C293.986 305.422 294.256 305.13 294.597 304.955Z" fill="#1A2E35"/>
<path d="M247.084 316.779H254.091C254.354 316.779 254.581 316.961 254.638 317.217L255.905 322.921C256.036 323.512 255.587 324.072 254.982 324.062C252.454 324.02 248.801 323.872 245.624 323.872C241.909 323.872 238.701 324.074 234.345 324.074C231.71 324.074 230.978 321.411 232.081 321.17C237.101 320.072 241.2 319.954 245.538 317.279C246.009 316.988 246.53 316.779 247.084 316.779Z" fill="#1A2E35"/>
<path d="M274.655 129.699C275.324 131.423 276.06 133.104 276.803 134.68C278.082 137.406 279.357 139.787 280.283 141.433C281.109 142.914 281.649 143.791 281.649 143.791L295.666 136.84C295.666 136.84 290.018 120.606 284.123 118.8C278.081 116.964 271.629 121.959 274.655 129.699Z" fill="#1A2E35"/>
<mask id="mask14_137_1341" style="mask-type:luminance" maskUnits="userSpaceOnUse" x="278" y="131" width="6" height="13">
<path d="M278.154 131.303H283.255V143.793H278.154V131.303Z" fill="white"/>
</mask>
<g mask="url(#mask14_137_1341)">
<g opacity="0.199997">
<path d="M280.866 131.303C279.645 132.202 278.774 134.617 278.155 137.454C278.954 139.016 279.69 140.373 280.283 141.431C281.109 142.914 281.648 143.794 281.648 143.794L283.255 142.995C283.148 139.241 282.546 135.012 280.866 131.303Z" fill="black"/>
</g>
</g>
<path d="M245.017 140.051C245.017 142.235 245.069 144.637 245.192 147.284C245.506 154.481 246.293 163.451 247.795 174.597H282.113C282.35 169.33 279.039 143.624 284.122 118.8C284.122 118.8 278.235 117.621 272.628 117.35C268.242 117.14 261.893 117 258.041 117.35C252.957 117.822 248.17 119.132 248.17 119.132C248.17 119.132 245.009 122.704 245.017 140.051Z" fill="#1A2E35"/>
<path d="M253.845 129.863C253.236 131.14 252.714 132.044 252.138 132.979C251.573 133.897 251.003 134.778 250.406 135.633C249.227 137.351 247.987 138.995 246.69 140.602C244.089 143.809 241.282 146.865 238.03 149.686C236.41 151.104 234.65 152.44 232.662 153.659L231.897 154.105L231.697 154.219L231.416 154.36L230.85 154.632C230.09 154.961 229.321 155.217 228.563 155.369C227.047 155.681 225.622 155.701 224.312 155.585C221.688 155.307 219.492 154.504 217.48 153.54C216.48 153.041 215.526 152.511 214.621 151.909C213.693 151.311 212.885 150.698 211.972 149.924L214.726 145.228C218.09 146.109 221.891 146.903 224.5 146.53C225.138 146.452 225.672 146.294 226.042 146.1C226.226 146 226.37 145.909 226.487 145.813C226.512 145.785 226.539 145.76 226.565 145.738L226.605 145.705L226.717 145.626L227.188 145.294C228.454 144.362 229.722 143.222 230.97 142C233.455 139.533 235.814 136.714 238.04 133.801C239.153 132.343 240.231 130.849 241.26 129.354C241.77 128.602 242.273 127.856 242.74 127.12C243.194 126.4 243.67 125.626 243.916 125.15L253.845 129.863Z" fill="#FFB670"/>
<path d="M216.115 145.917L210.197 143.112L209.662 151.049C209.662 151.049 214.262 151.845 216.697 150.049L216.115 145.917Z" fill="#FFB670"/>
<path d="M202.736 144.461L205.017 150.512L209.662 151.049L210.197 143.112L202.736 144.461Z" fill="#FFB670"/>
<path d="M258.086 125.659C257.883 131.791 245.254 145.919 245.254 145.919L231.91 137.204C231.91 137.204 236.141 129.288 241.635 123.561C249.922 114.92 258.328 118.3 258.086 125.659Z" fill="#1A2E35"/>
<mask id="mask15_137_1341" style="mask-type:luminance" maskUnits="userSpaceOnUse" x="246" y="302" width="8" height="9">
<path d="M246.404 302.666H253.152V310.326H246.404V302.666Z" fill="white"/>
</mask>
<g mask="url(#mask15_137_1341)">
<g opacity="0.199997">
<path d="M246.404 302.666L246.732 310.326H253.152L252.823 302.666H246.404Z" fill="black"/>
</g>
</g>
<mask id="mask16_137_1341" style="mask-type:luminance" maskUnits="userSpaceOnUse" x="287" y="290" width="11" height="9">
<path d="M287.871 290.042H297.753V298.859H287.871V290.042Z" fill="white"/>
</mask>
<g mask="url(#mask16_137_1341)">
<g opacity="0.199997">
<path d="M293.823 290.042L287.872 291.678L291.801 298.859L297.753 297.223L293.823 290.042Z" fill="black"/>
</g>
</g>
<path d="M270.354 97.2761C270.096 103.639 270.269 107.377 267.127 110.706C262.402 115.713 254.496 112.966 252.847 106.655C251.363 100.973 252.034 91.5213 258.202 88.8628C264.278 86.2433 270.612 90.9131 270.354 97.2761Z" fill="#FFB670"/>
<path d="M257.685 100.309C255.395 98.6793 253.148 95.3084 253.321 92.8024C251.204 92.7161 249.777 89.2161 250.944 86.6665C251.679 88.3084 254.205 87.099 255.189 85.8024C254.66 84.5494 254.747 82.4751 258.376 81.0059C258.074 82.0644 258.233 83.8416 261.876 82.5614C266.305 81.0059 274.087 82.0434 271.806 87.3144C274.926 87.8768 278.967 94.3098 275.531 97.6978C272.095 101.086 271.382 106.543 268.444 107.105C265.506 107.667 257.858 107.859 257.685 100.309Z" fill="#1A2E35"/>
<path d="M269.738 87.1045C271.779 86.1696 275.07 86.5709 276.844 89.1018C274.429 88.1148 273.048 87.4716 269.738 87.1045Z" fill="#1A2E35"/>
<path d="M259.363 100.038C259.314 101.53 258.663 102.95 257.856 103.889C256.643 105.302 255.314 104.48 255.045 102.807C254.804 101.302 255.145 98.7521 256.653 97.9494C258.139 97.1592 259.417 98.3321 259.363 100.038Z" fill="#FFB670"/>
<path d="M259.966 174.597C259.966 174.597 256.938 223.152 262.677 241.057C271.768 269.416 287.971 298.384 287.971 298.384L299.561 294.899C299.561 294.899 286.816 264.319 282.624 240.432C278.859 218.971 282.112 192.126 282.112 174.597H259.966Z" fill="#0C8FFC"/>
<mask id="mask17_137_1341" style="mask-type:luminance" maskUnits="userSpaceOnUse" x="259" y="184" width="8" height="41">
<path d="M259.169 184.948H266.236V224.148H259.169V184.948Z" fill="white"/>
</mask>
<g mask="url(#mask17_137_1341)">
<g opacity="0.199997">
<path d="M259.475 185.417C262.714 184.469 265.238 184.827 265.894 187.709C267.605 195.232 262.472 215.072 259.914 224.148C258.877 211.144 259.118 195.589 259.475 185.417Z" fill="black"/>
</g>
</g>
<path d="M284.7 295.062C284.652 295.077 287.724 298.65 287.724 298.65L300.386 294.842L298.778 290.557L284.7 295.062Z" fill="#1A2E35"/>
<path d="M247.791 174.597C247.791 174.597 238.125 215.564 237.445 235.133C236.682 257.078 244.34 308.843 244.34 308.843H255.211C255.211 308.843 256.549 256.676 257.033 236.686C257.56 214.894 270.352 174.597 270.352 174.597H247.791Z" fill="#0C8FFC"/>
<path d="M242.249 304.513C242.199 304.513 242.863 309.026 242.863 309.026H256.086L256.444 304.998L242.249 304.513Z" fill="#1A2E35"/>
<path d="M252.597 115.847C254.068 115.337 265.28 113.912 273.417 114.346C278.062 114.594 280.682 115.101 282.579 116.019C284.477 116.937 281.076 121.561 279.507 122.126C280.143 123.899 276.604 126.162 274.585 127.236C273.777 128.903 265.826 130.443 261.155 126.862C257.568 124.112 248.398 117.301 252.597 115.847Z" fill="#0C8FFC"/>
</g>
</g>
<defs>
<clipPath id="clip0_137_1341">
<rect width="388.889" height="388.889" fill="white" transform="translate(0.5 0.333374)"/>
</clipPath>
</defs>
</svg>
