<svg width="17" height="22" viewBox="0 0 17 22" fill="none" xmlns="http://www.w3.org/2000/svg">
<path d="M3.98752 19.3415L14.5031 12.3312M3.98752 19.3415C3.17946 19.8802 2.77544 20.1496 2.4404 20.1296M3.98752 19.3415L14.5031 11M2.4404 20.1296C2.14852 20.1122 1.87889 19.9679 1.70249 19.7347C1.5 19.467 1.5 18.9814 1.5 18.0103V3.98951C1.5 3.01835 1.5 2.53277 1.70249 2.2651C1.87889 2.03191 2.14852 1.88761 2.4404 1.87018M2.4404 20.1296C2.77544 20.1496 2.19194 18.549 3 18.0103M2.4404 20.1296C2.77544 20.1496 2.19194 16.5387 3 16M2.4404 20.1296C2.77544 20.1496 2.19194 15.0387 3 14.5M14.5031 9.6686L3.98752 2.65823C3.17946 2.11953 2.77544 1.85017 2.4404 1.87018M14.5031 9.6686C15.1708 10.1137 15.5046 10.3363 15.6209 10.6168C15.7227 10.8621 15.7227 11.1377 15.6209 11.383M14.5031 9.6686L3.6519 11.8679C3.63655 11.871 3.62887 11.8725 3.39642 11.8072C3.29506 11.7788 2.94502 11.5445 2.88005 11.4617C2.73103 11.2717 2.77071 11.4766 2.75484 11.3946C2.32527 9.17662 2.73291 1.85271 2.4404 1.87018M14.5031 9.6686L4.55257 10.4563C4.49804 10.4606 4.47078 10.4627 4.28037 10.4004C4.19572 10.3727 3.90361 10.1812 3.84442 10.1147C3.71125 9.96494 3.74623 10.0666 3.73224 10.0259C3.0957 8.1765 2.73628 1.85251 2.4404 1.87018M14.5031 9.6686L5.42267 9.02974C5.34931 9.02458 5.31263 9.022 5.1732 8.96843C5.1087 8.94365 4.8913 8.806 4.84132 8.75829C4.73328 8.65515 4.74743 8.68032 4.74177 8.67025C3.92017 7.20864 2.74202 1.85217 2.4404 1.87018M14.5031 9.6686L5.82279 8.05983C5.75283 8.04686 5.71785 8.04038 5.61435 7.99567C5.56478 7.97425 5.4023 7.87295 5.36125 7.83788C5.27555 7.76463 5.27623 7.76555 5.27596 7.76518C4.38291 6.56348 2.74746 1.85184 2.4404 1.87018M14.5031 9.6686L6.65754 6.56238C6.6102 6.54363 6.58653 6.53426 6.54168 6.51103C6.5167 6.49809 6.44973 6.45747 6.42671 6.44129C6.38538 6.41226 6.37971 6.40735 6.36836 6.39752C5.41562 5.57295 2.75922 1.85114 2.4404 1.87018M14.5031 9.6686L3.76828 13.7107C3.76717 13.7111 3.76661 13.7113 3.49737 13.6641C3.37248 13.6423 2.97637 13.4105 2.89608 13.3124C2.72299 13.1009 2.75808 13.3298 2.74404 13.2382C2.33216 10.551 2.73042 1.85286 2.4404 1.87018M14.5031 12.3312C15.1708 11.886 15.5046 11.6635 15.6209 11.383M14.5031 12.3312L3 18.0103M14.5031 12.3312L3 16M14.5031 12.3312L3 14.5M15.6209 11.383C15.5046 11.6635 15.1708 10.5549 14.5031 11M3 18.0103L14.5031 11M3 16L14.5031 11M3 14.5L14.5031 11" stroke="currentColor" stroke-width="2" stroke-linecap="round" stroke-linejoin="round"/>
</svg>
