<svg width="22" height="19" viewBox="0 0 22 19" fill="none" xmlns="http://www.w3.org/2000/svg">
<path fill-rule="evenodd" clip-rule="evenodd" d="M10.6488 8.56742C9.97499 8.56742 9.34265 8.8191 8.85543 9.29226C8.37858 9.75535 8.11942 10.3694 8.12979 11.0037V11.0137C8.12979 11.6681 8.38895 12.2822 8.8658 12.7453C9.34265 13.2084 9.97499 13.4601 10.6488 13.4601C12.0379 13.4601 13.1574 12.3627 13.1678 11.0137C13.1678 10.3594 12.9087 9.74528 12.4318 9.28219C11.955 8.8191 11.3226 8.56742 10.6488 8.56742ZM16.4644 8.63761C15.946 8.63761 15.5314 8.23492 15.5314 7.73156C15.5314 7.2282 15.946 6.81545 16.4644 6.81545C16.9827 6.81545 17.4077 7.2282 17.4077 7.73156C17.4077 8.23492 16.9827 8.63761 16.4644 8.63761ZM13.5203 13.8122C12.7843 14.527 11.7684 14.9699 10.6488 14.9699C9.56037 14.9699 8.54447 14.5572 7.767 13.8122C6.99989 13.0572 6.57488 12.0706 6.57488 11.0135C6.56451 9.96656 6.98953 8.97998 7.75663 8.22494C8.53411 7.46991 9.56037 7.05715 10.6488 7.05715C11.7373 7.05715 12.7636 7.46991 13.5307 8.21488C14.2978 8.96991 14.7228 9.96656 14.7228 11.0135C14.7124 12.1109 14.2563 13.0975 13.5203 13.8122ZM16.4955 3.98682C16.4022 3.98682 16.3296 3.93648 16.2882 3.86601L16.1845 3.64453C15.9046 3.0707 15.5833 2.40627 15.3863 2.02372C14.9094 1.11767 14.0905 0.614315 13.085 0.604248H8.20245C7.19692 0.614315 6.38835 1.11767 5.9115 2.02372C5.70417 2.4264 5.35172 3.15124 5.06146 3.7452L4.99926 3.86601C4.96816 3.94655 4.88523 3.98682 4.8023 3.98682C2.30402 3.98682 0.282593 5.95998 0.282593 8.3761V14.356C0.282593 16.7721 2.30402 18.7453 4.8023 18.7453H16.4955C18.9834 18.7453 21.0152 16.7721 21.0152 14.356V8.3761C21.0152 5.95998 18.9834 3.98682 16.4955 3.98682Z" fill="white"/>
</svg>
