<svg width="17" height="17" viewBox="0 0 17 17" fill="none" xmlns="http://www.w3.org/2000/svg">
<path d="M12.6664 5.83333C12.6664 5.4068 12.5037 4.98029 12.1783 4.65486C11.8528 4.32943 11.4263 4.16671 10.9998 4.16671M10.9998 10.8334C13.7612 10.8334 15.9998 8.5948 15.9998 5.83337C15.9998 3.07195 13.7612 0.833374 10.9998 0.833374C8.23833 0.833374 5.99976 3.07195 5.99976 5.83337C5.99976 6.06144 6.01503 6.28594 6.0446 6.5059C6.09324 6.86769 6.11756 7.04858 6.10119 7.16303C6.08413 7.28225 6.06242 7.3465 6.00366 7.45162C5.94725 7.55254 5.84785 7.65195 5.64903 7.85076L1.39028 12.1095C1.24615 12.2536 1.17409 12.3257 1.12256 12.4098C1.07687 12.4844 1.04319 12.5657 1.02278 12.6507C0.999756 12.7466 0.999756 12.8485 0.999756 13.0523V14.5C0.999756 14.9668 0.999756 15.2001 1.09058 15.3784C1.17048 15.5352 1.29796 15.6627 1.45476 15.7425C1.63302 15.8334 1.86638 15.8334 2.33309 15.8334H4.33309V14.1667H5.99976V12.5H7.66642L8.98237 11.1841C9.18118 10.9853 9.28059 10.8859 9.38151 10.8295C9.48663 10.7707 9.55088 10.749 9.6701 10.7319C9.78455 10.7156 9.96544 10.7399 10.3272 10.7885C10.5472 10.8181 10.7717 10.8334 10.9998 10.8334Z" stroke="#77767A" stroke-width="1.67" stroke-linecap="round" stroke-linejoin="round"/>
</svg>
