<svg width="19" height="19" viewBox="0 0 19 19" fill="none" xmlns="http://www.w3.org/2000/svg">
<path d="M2.52783 6.49771C2.52783 5.2337 2.52783 4.6017 2.77382 4.11891C2.99021 3.69424 3.33547 3.34897 3.76015 3.13259C4.24293 2.8866 4.87494 2.8866 6.13894 2.8866H12.4584C13.7224 2.8866 14.3544 2.8866 14.8372 3.13259C15.2619 3.34897 15.6071 3.69424 15.8235 4.11891C16.0695 4.6017 16.0695 5.2337 16.0695 6.49771V10.5602C16.0695 11.8242 16.0695 12.4562 15.8235 12.939C15.6071 13.3637 15.2619 13.7089 14.8372 13.9253C14.3544 14.1713 13.7224 14.1713 12.4584 14.1713H7.55612C7.08663 14.1713 6.85189 14.1713 6.62736 14.2174C6.42815 14.2583 6.23539 14.3259 6.0543 14.4184C5.85018 14.5227 5.66688 14.6693 5.30027 14.9626L3.50566 16.3983C3.19263 16.6487 3.03612 16.774 2.9044 16.7741C2.78984 16.7742 2.68147 16.7221 2.61001 16.6326C2.52783 16.5297 2.52783 16.3292 2.52783 15.9284V6.49771Z" stroke="currentColor" stroke-width="1.50463" stroke-linecap="round" stroke-linejoin="round"/>
</svg>
