<svg width="26" height="26" viewBox="0 0 26 26" fill="none" xmlns="http://www.w3.org/2000/svg">
<path d="M17.3333 6.50002V5.63335C17.3333 4.41991 17.3333 3.81318 17.0972 3.34971C16.8895 2.94202 16.558 2.61057 16.1503 2.40284C15.6868 2.16669 15.0801 2.16669 13.8667 2.16669H12.1333C10.9199 2.16669 10.3132 2.16669 9.84969 2.40284C9.442 2.61057 9.11055 2.94202 8.90282 3.34971C8.66667 3.81318 8.66667 4.41991 8.66667 5.63335V6.50002M10.8333 12.4584V17.875M15.1667 12.4584V17.875M3.25 6.50002H22.75M20.5833 6.50002V18.6334C20.5833 20.4535 20.5833 21.3636 20.2291 22.0588C19.9175 22.6704 19.4203 23.1675 18.8088 23.4791C18.1136 23.8334 17.2035 23.8334 15.3833 23.8334H10.6167C8.7965 23.8334 7.88641 23.8334 7.1912 23.4791C6.57967 23.1675 6.08248 22.6704 5.7709 22.0588C5.41667 21.3636 5.41667 20.4535 5.41667 18.6334V6.50002" stroke="white" stroke-width="2" stroke-linecap="round" stroke-linejoin="round"/>
</svg>
