<svg width="16" height="15" viewBox="0 0 16 15" fill="none" xmlns="http://www.w3.org/2000/svg">
<path d="M10.167 3.75V3.25C10.167 2.54993 10.167 2.1999 10.0308 1.93251C9.91091 1.69731 9.71968 1.50608 9.48448 1.38624C9.21709 1.25 8.86706 1.25 8.16699 1.25H7.16699C6.46693 1.25 6.11689 1.25 5.8495 1.38624C5.6143 1.50608 5.42308 1.69731 5.30323 1.93251C5.16699 2.1999 5.16699 2.54993 5.16699 3.25V3.75M6.41699 7.1875V10.3125M8.91699 7.1875V10.3125M2.04199 3.75H13.292M12.042 3.75V10.75C12.042 11.8001 12.042 12.3251 11.8376 12.7262C11.6579 13.079 11.371 13.3659 11.0182 13.5456C10.6171 13.75 10.0921 13.75 9.04199 13.75H6.29199C5.24189 13.75 4.71684 13.75 4.31576 13.5456C3.96296 13.3659 3.67612 13.079 3.49635 12.7262C3.29199 12.3251 3.29199 11.8001 3.29199 10.75V3.75" stroke="white" stroke-width="1.5" stroke-linecap="round" stroke-linejoin="round"/>
</svg>
