<svg width="16" height="16" viewBox="0 0 16 16" fill="none" xmlns="http://www.w3.org/2000/svg">
<path d="M11.7497 7.08335L8.91636 4.25001M0.770508 15.2292L3.16777 14.9628C3.46066 14.9303 3.6071 14.914 3.74398 14.8697C3.86542 14.8304 3.98099 14.7748 4.08755 14.7046C4.20766 14.6254 4.31185 14.5212 4.52023 14.3128L13.8747 4.95835C14.6571 4.17594 14.6571 2.90741 13.8747 2.12501C13.0923 1.34261 11.8238 1.34261 11.0414 2.12501L1.6869 11.4795C1.47852 11.6878 1.37433 11.792 1.29513 11.9121C1.22486 12.0187 1.16931 12.1343 1.13 12.2557C1.08568 12.3926 1.06941 12.539 1.03687 12.8319L0.770508 15.2292Z" stroke="#0C8FFC" stroke-width="1.5" stroke-linecap="round" stroke-linejoin="round"/>
</svg>
