<svg width="19" height="19" viewBox="0 0 19 19" fill="none" xmlns="http://www.w3.org/2000/svg">
<path d="M2.97314 8.47892C2.97314 8.04682 2.97314 7.83077 3.02884 7.63181C3.07817 7.45557 3.15924 7.28981 3.26807 7.14266C3.39093 6.97655 3.56147 6.84391 3.90254 6.57863L9.00494 2.6101C9.26925 2.40453 9.4014 2.30174 9.54733 2.26223C9.67609 2.22737 9.8118 2.22737 9.94056 2.26223C10.0865 2.30174 10.2186 2.40453 10.4829 2.6101L15.5853 6.57863C15.9264 6.84391 16.097 6.97655 16.2198 7.14266C16.3286 7.28981 16.4097 7.45557 16.4591 7.63181C16.5147 7.83077 16.5147 8.04682 16.5147 8.47892V13.9218C16.5147 14.7645 16.5147 15.1858 16.3507 15.5077C16.2065 15.7908 15.9763 16.021 15.6932 16.1652C15.3713 16.3292 14.95 16.3292 14.1073 16.3292H5.38054C4.53787 16.3292 4.11654 16.3292 3.79468 16.1652C3.51157 16.021 3.28139 15.7908 3.13714 15.5077C2.97314 15.1858 2.97314 14.7645 2.97314 13.9218V8.47892Z" stroke="currentColor" stroke-width="1.50462" stroke-linecap="round" stroke-linejoin="round"/>
</svg>
