<svg width="20" height="20" viewBox="0 0 20 20" fill="none" xmlns="http://www.w3.org/2000/svg">
<path d="M8.16667 10.9167C8.56033 11.443 9.06258 11.8785 9.63934 12.1936C10.2161 12.5087 10.8539 12.6961 11.5094 12.743C12.165 12.79 12.823 12.6954 13.4387 12.4657C14.0545 12.236 14.6137 11.8765 15.0783 11.4117L17.8283 8.66172C18.6632 7.79729 19.1252 6.63953 19.1148 5.43779C19.1043 4.23606 18.6223 3.0865 17.7725 2.23671C16.9227 1.38693 15.7732 0.904903 14.5714 0.89446C13.3697 0.884018 12.2119 1.34599 11.3475 2.18088L9.77083 3.74838M11.8333 9.08338C11.4397 8.5571 10.9374 8.12163 10.3607 7.80652C9.7839 7.49141 9.14612 7.30403 8.49057 7.25708C7.83502 7.21013 7.17704 7.30471 6.56127 7.53442C5.94549 7.76412 5.38631 8.12357 4.92167 8.58838L2.17167 11.3384C1.33678 12.2028 0.874801 13.3606 0.885244 14.5623C0.895687 15.764 1.37771 16.9136 2.2275 17.7634C3.07729 18.6132 4.22684 19.0952 5.42858 19.1056C6.63031 19.1161 7.78807 18.6541 8.6525 17.8192L10.22 16.2517" stroke="black" stroke-width="1.5" stroke-linecap="round" stroke-linejoin="round"/>
</svg>
