<svg width="16" height="16" viewBox="0 0 16 16" fill="none" xmlns="http://www.w3.org/2000/svg">
<path d="M11.0115 11.3542L14.7731 7.59261M14.7731 7.59261L11.0115 3.83104M14.7731 7.59261H5.74533M8.00228 11.3542C8.00228 12.0538 8.00228 12.4036 7.92538 12.6906C7.71668 13.4695 7.10833 14.0778 6.32948 14.2865C6.04247 14.3634 5.69265 14.3634 4.99302 14.3634H4.61686C3.56526 14.3634 3.03946 14.3634 2.62469 14.1916C2.07168 13.9626 1.63231 13.5232 1.40325 12.9702C1.23145 12.5554 1.23145 12.0296 1.23145 10.978V4.20719C1.23145 3.15559 1.23145 2.62979 1.40325 2.21503C1.63231 1.66201 2.07168 1.22264 2.6247 0.993577C3.03946 0.821777 3.56526 0.821777 4.61686 0.821777H4.99302C5.69265 0.821777 6.04247 0.821777 6.32948 0.898681C7.10833 1.10737 7.71668 1.71573 7.92538 2.49458C8.00228 2.78159 8.00228 3.13141 8.00228 3.83104" stroke="currentColor" stroke-width="1.50463" stroke-linecap="round" stroke-linejoin="round"/>
</svg>
