<svg width="16" height="16" viewBox="0 0 16 16" fill="none" xmlns="http://www.w3.org/2000/svg">
<path d="M4.61686 8.06482H4.62439M8.00228 8.06482H8.0098M11.3877 8.06482H11.3952M8.00228 14.8357C11.7417 14.8357 14.7731 11.8043 14.7731 8.06482C14.7731 4.3254 11.7417 1.29399 8.00228 1.29399C4.26285 1.29399 1.23145 4.3254 1.23145 8.06482C1.23145 8.96545 1.40729 9.82501 1.72652 10.611C1.78761 10.7615 1.81816 10.8367 1.83179 10.8975C1.84512 10.957 1.85 11.001 1.85 11.0619C1.85001 11.1243 1.8387 11.1921 1.81608 11.3279L1.36997 14.0045C1.32325 14.2848 1.29989 14.425 1.34336 14.5263C1.3814 14.615 1.45209 14.6857 1.54079 14.7237C1.64213 14.7672 1.78228 14.7439 2.06257 14.6971L4.73923 14.251C4.87497 14.2284 4.94284 14.2171 5.00516 14.2171C5.06611 14.2171 5.11013 14.222 5.1696 14.2353C5.23041 14.2489 5.30562 14.2795 5.45606 14.3406C6.24209 14.6598 7.10165 14.8357 8.00228 14.8357ZM4.99302 8.06482C4.99302 8.27257 4.82461 8.44098 4.61686 8.44098C4.40912 8.44098 4.2407 8.27257 4.2407 8.06482C4.2407 7.85708 4.40912 7.68867 4.61686 7.68867C4.82461 7.68867 4.99302 7.85708 4.99302 8.06482ZM8.37844 8.06482C8.37844 8.27257 8.21002 8.44098 8.00228 8.44098C7.79453 8.44098 7.62612 8.27257 7.62612 8.06482C7.62612 7.85708 7.79453 7.68867 8.00228 7.68867C8.21002 7.68867 8.37844 7.85708 8.37844 8.06482ZM11.7639 8.06482C11.7639 8.27257 11.5954 8.44098 11.3877 8.44098C11.1799 8.44098 11.0115 8.27257 11.0115 8.06482C11.0115 7.85708 11.1799 7.68867 11.3877 7.68867C11.5954 7.68867 11.7639 7.85708 11.7639 8.06482Z" stroke="currentColor" stroke-width="1.50463" stroke-linecap="round" stroke-linejoin="round"/>
</svg>
