<svg width="19" height="19" viewBox="0 0 19 19" fill="none" xmlns="http://www.w3.org/2000/svg">
<path d="M9.2362 10.6088C9.65169 10.6088 9.98852 10.272 9.98852 9.85649C9.98852 9.44099 9.65169 9.10417 9.2362 9.10417C8.82071 9.10417 8.48389 9.44099 8.48389 9.85649C8.48389 10.272 8.82071 10.6088 9.2362 10.6088Z" stroke="currentColor" stroke-width="1.50463" stroke-linecap="round" stroke-linejoin="round"/>
<path d="M9.2362 5.3426C9.65169 5.3426 9.98852 5.00577 9.98852 4.59028C9.98852 4.17479 9.65169 3.83797 9.2362 3.83797C8.82071 3.83797 8.48389 4.17479 8.48389 4.59028C8.48389 5.00577 8.82071 5.3426 9.2362 5.3426Z" stroke="currentColor" stroke-width="1.50463" stroke-linecap="round" stroke-linejoin="round"/>
<path d="M9.2362 15.875C9.65169 15.875 9.98852 15.5382 9.98852 15.1227C9.98852 14.7072 9.65169 14.3704 9.2362 14.3704C8.82071 14.3704 8.48389 14.7072 8.48389 15.1227C8.48389 15.5382 8.82071 15.875 9.2362 15.875Z" stroke="currentColor" stroke-width="1.50463" stroke-linecap="round" stroke-linejoin="round"/>
</svg>
