<svg width="22" height="22" viewBox="0 0 22 22" fill="none" xmlns="http://www.w3.org/2000/svg">
<path d="M8.59974 14.8838C8.5 14.7506 8.5 14.512 8.5 14.0347V7.96533M8.59974 14.8838C8.68666 14.9999 8.81971 15.0726 8.96438 15.0829C9.13038 15.0948 9.33112 14.9657 9.73261 14.7076L14.4532 11.6729C14.8016 11.449 14.9758 11.337 15.0359 11.1946C15.0885 11.0702 15.0885 10.9298 15.0359 10.8054C14.9758 10.663 14.8016 10.551 14.4532 10.3271L9.73261 7.29239C9.33112 7.03429 9.13038 6.90525 8.96438 6.9171C8.81971 6.92744 8.68666 7.00007 8.59974 7.11618C8.5 7.24941 8.5 7.48805 8.5 7.96533M8.59974 14.8838C8.51393 14.7692 12.3664 12.4744 13.4443 11.5317C13.4847 11.4964 13.3836 11.5848 13.425 11.4469C13.4446 11.3817 13.4249 11.144 13.395 11.0829C13.3315 10.9537 13.3488 10.9644 13.3419 10.9601L8.5 7.96533M8.59974 14.8838C8.51296 14.7679 11.1515 12.422 11.8384 11.5001C11.8394 11.4988 11.8369 11.5021 11.8592 11.3926C11.8702 11.3385 11.8532 11.1559 11.8325 11.1048C11.7904 11.0012 11.7744 10.9865 11.7425 10.957L8.5 7.96533M8.59974 14.8838C8.51006 14.764 10.1178 12.2632 10.4431 11.4128C10.4495 11.3961 10.4528 11.3877 10.459 11.3185C10.4623 11.2817 10.4519 11.172 10.4417 11.1364C10.4226 11.0696 10.4084 11.0468 10.3801 11.0011L8.5 7.96533M8.59974 14.8838C8.506 14.7586 9.38366 12.3014 9.4896 11.61C9.4916 11.5969 9.4926 11.5904 9.49337 11.5583C9.4938 11.5399 9.49079 11.4912 9.48809 11.473C9.48337 11.4412 9.47884 11.4252 9.46979 11.3932L8.5 7.96533M21 11C21 16.5228 16.5228 21 11 21C5.47715 21 1 16.5228 1 11C1 5.47715 5.47715 1 11 1C16.5228 1 21 5.47715 21 11Z" stroke="white" stroke-width="1.5" stroke-linecap="round" stroke-linejoin="round"/>
</svg>
