<svg width="32" height="32" viewBox="0 0 32 32" fill="none" xmlns="http://www.w3.org/2000/svg">
<rect width="32" height="32" rx="8" fill="#0866FF"/>
<path d="M15.9998 8C11.5817 8 8 11.5949 8 16.0294C8 19.7948 10.583 22.9546 14.0674 23.8224V18.4832H12.4178V16.0294H14.0674V14.9721C14.0674 12.2392 15.2997 10.9725 17.9729 10.9725C18.4798 10.9725 19.3543 11.0724 19.7121 11.1719V13.3961C19.5233 13.3762 19.1953 13.3662 18.7879 13.3662C17.4763 13.3662 16.9694 13.865 16.9694 15.1616V16.0294H19.5825L19.1335 18.4832H16.9694V24C20.9306 23.5198 24 20.1347 24 16.0294C23.9997 11.5949 20.418 8 15.9998 8Z" fill="white"/>
</svg>
