<svg width="16" height="16" viewBox="0 0 16 16" fill="none" xmlns="http://www.w3.org/2000/svg">
<path d="M8.00214 10.4977C5.61725 10.4977 3.49638 11.6492 2.14612 13.4362C1.85551 13.8208 1.7102 14.0131 1.71496 14.273C1.71863 14.4738 1.84472 14.7271 2.00271 14.8511C2.2072 15.0116 2.49059 15.0116 3.05735 15.0116H12.9469C13.5137 15.0116 13.7971 15.0116 14.0016 14.8511C14.1596 14.7271 14.2857 14.4738 14.2893 14.273C14.2941 14.0131 14.1488 13.8208 13.8582 13.4362C12.5079 11.6492 10.387 10.4977 8.00214 10.4977Z" stroke="currentColor" stroke-width="1.50463" stroke-linecap="round" stroke-linejoin="round"/>
<path d="M8.00214 8.24073C9.87186 8.24073 11.3876 6.72503 11.3876 4.85531C11.3876 2.9856 9.87186 1.46989 8.00214 1.46989C6.13243 1.46989 4.61673 2.9856 4.61673 4.85531C4.61673 6.72503 6.13243 8.24073 8.00214 8.24073Z" stroke="currentColor" stroke-width="1.50463" stroke-linecap="round" stroke-linejoin="round"/>
</svg>
