<svg width="731" height="732" viewBox="0 0 731 732" fill="none" xmlns="http://www.w3.org/2000/svg">
<g clip-path="url(#clip0_260_772)">
<path d="M185.366 728.913C157.091 728.597 129.083 723.412 102.569 713.583C83.2082 706.427 65.6912 695.033 51.299 680.237C36.4623 665.873 25.0524 648.352 17.9167 628.974C8.09656 602.461 2.91814 574.455 2.60867 546.184C0.437167 499.185 0 485.089 0 366C0 246.911 0.480167 232.865 2.58717 185.83C2.93419 157.57 8.11899 129.579 17.9167 103.069C25.0871 83.705 36.4809 66.181 51.2703 51.7703C65.6447 36.947 83.1699 25.5477 102.548 18.4167C129.061 8.58842 157.07 3.4027 185.344 3.08717C232.358 0.937167 246.476 0.5 365.5 0.5C484.524 0.5 498.635 0.980167 545.67 3.08717C573.937 3.43174 601.936 8.61658 628.452 18.4167C647.822 25.5571 665.342 36.9524 679.722 51.7632C694.538 66.1484 705.938 83.6734 713.083 103.048C722.914 129.561 728.102 157.569 728.42 185.844C730.57 232.879 731.007 246.962 731.007 366.014C731.007 485.067 730.57 499.149 728.42 546.184C728.079 574.455 722.891 602.457 713.083 628.974C705.664 648.203 694.301 665.666 679.725 680.238C665.149 694.81 647.683 706.169 628.452 713.583C601.939 723.414 573.931 728.602 545.656 728.92C498.664 731.07 484.538 731.507 365.486 731.507C246.433 731.507 232.35 731.091 185.359 728.92" fill="url(#paint0_radial_260_772)"/>
<path d="M185.366 728.913C157.091 728.597 129.083 723.412 102.569 713.583C83.2082 706.427 65.6912 695.033 51.299 680.237C36.4623 665.873 25.0524 648.352 17.9167 628.974C8.09656 602.461 2.91814 574.455 2.60867 546.184C0.437167 499.185 0 485.089 0 366C0 246.911 0.480167 232.865 2.58717 185.83C2.93419 157.57 8.11899 129.579 17.9167 103.069C25.0871 83.705 36.4809 66.181 51.2703 51.7703C65.6447 36.947 83.1699 25.5477 102.548 18.4167C129.061 8.58842 157.07 3.4027 185.344 3.08717C232.358 0.937167 246.476 0.5 365.5 0.5C484.524 0.5 498.635 0.980167 545.67 3.08717C573.937 3.43174 601.936 8.61658 628.452 18.4167C647.822 25.5571 665.342 36.9524 679.722 51.7632C694.538 66.1484 705.938 83.6734 713.083 103.048C722.914 129.561 728.102 157.569 728.42 185.844C730.57 232.879 731.007 246.962 731.007 366.014C731.007 485.067 730.57 499.149 728.42 546.184C728.079 574.455 722.891 602.457 713.083 628.974C705.664 648.203 694.301 665.666 679.725 680.238C665.149 694.81 647.683 706.169 628.452 713.583C601.939 723.414 573.931 728.602 545.656 728.92C498.664 731.07 484.538 731.507 365.486 731.507C246.433 731.507 232.35 731.091 185.359 728.92" fill="url(#paint1_radial_260_772)"/>
<path d="M275.752 367.555C275.753 349.651 281.064 332.15 291.012 317.264C300.96 302.378 315.099 290.777 331.641 283.927C348.183 277.077 366.384 275.287 383.944 278.781C401.503 282.276 417.632 290.899 430.29 303.561C442.949 316.222 451.568 332.353 455.059 349.914C458.55 367.474 456.755 385.675 449.901 402.215C443.047 418.755 431.442 432.891 416.554 442.836C401.666 452.781 384.164 458.087 366.26 458.085C342.253 458.081 319.231 448.541 302.258 431.563C285.284 414.586 275.75 391.562 275.752 367.555ZM226.811 367.555C226.811 395.135 234.989 422.097 250.312 445.029C265.635 467.961 287.414 485.835 312.895 496.389C338.376 506.944 366.414 509.705 393.465 504.325C420.515 498.944 445.363 485.663 464.865 466.16C484.367 446.658 497.649 421.811 503.029 394.76C508.41 367.71 505.648 339.671 495.094 314.19C484.539 288.709 466.666 266.93 443.733 251.607C420.801 236.285 393.84 228.106 366.26 228.106C347.947 228.105 329.813 231.711 312.894 238.719C295.975 245.727 280.602 255.998 267.652 268.948C254.703 281.897 244.431 297.27 237.424 314.189C230.416 331.108 226.81 349.242 226.811 367.555ZM478.64 222.581C478.637 229.026 480.546 235.327 484.124 240.687C487.703 246.048 492.79 250.227 498.743 252.696C504.697 255.165 511.249 255.813 517.57 254.558C523.892 253.304 529.7 250.203 534.259 245.647C538.819 241.092 541.925 235.287 543.185 228.966C544.445 222.646 543.803 216.093 541.339 210.138C538.875 204.182 534.701 199.091 529.343 195.508C523.986 191.925 517.686 190.011 511.241 190.008C502.602 190.012 494.318 193.444 488.208 199.552C482.098 205.659 478.662 213.942 478.655 222.581M256.56 588.611C239.339 588.422 222.279 585.27 206.128 579.294C194.414 574.779 183.776 567.862 174.898 558.987C166.019 550.113 159.098 539.477 154.578 527.766C148.599 511.615 145.448 494.555 145.261 477.334C143.943 448.71 143.685 440.11 143.685 367.591C143.685 295.071 143.971 286.493 145.261 257.841C145.47 240.622 148.621 223.565 154.578 207.409C159.092 195.692 166.012 185.051 174.891 176.172C183.77 167.293 194.411 160.373 206.128 155.859C222.279 149.88 239.339 146.729 256.56 146.542C285.183 145.224 293.783 144.966 366.274 144.966C438.765 144.966 447.372 145.245 476.024 146.549C493.243 146.758 510.299 149.909 526.456 155.866C538.173 160.381 548.814 167.301 557.693 176.18C566.571 185.058 573.491 195.699 578.006 207.416C583.984 223.567 587.136 240.627 587.323 257.848C588.641 286.514 588.899 295.071 588.899 367.598C588.899 440.125 588.634 448.696 587.323 477.348C587.122 494.568 583.971 511.626 578.006 527.78C573.486 539.492 566.565 550.127 557.686 559.002C548.808 567.876 538.17 574.794 526.456 579.309C510.305 585.287 493.245 588.439 476.024 588.625C447.401 589.944 438.801 590.202 366.274 590.202C293.747 590.202 285.176 589.937 256.56 588.625M254.309 97.6441C231.776 98.0872 209.482 102.352 188.376 110.257C170.334 117.233 153.949 127.902 140.271 141.58C126.593 155.258 115.923 171.643 108.948 189.686C101.043 210.791 96.7786 233.086 96.3345 255.619C94.9943 284.572 94.6933 293.832 94.6933 367.584C94.6933 441.336 95.0015 450.588 96.3345 479.549C96.7785 502.082 101.043 524.376 108.948 545.482C115.924 563.524 126.593 579.909 140.271 593.587C153.949 607.265 170.334 617.934 188.376 624.91C209.483 632.812 231.776 637.077 254.309 637.523C283.277 638.842 292.522 639.165 366.274 639.165C440.026 639.165 449.278 638.857 478.239 637.523C500.772 637.079 523.066 632.813 544.172 624.91C562.214 617.934 578.599 607.265 592.277 593.587C605.955 579.909 616.624 563.524 623.6 545.482C631.515 524.379 635.78 502.083 636.214 479.549C637.532 450.574 637.833 441.336 637.833 367.584C637.833 293.832 637.525 284.579 636.214 255.619C635.771 233.086 631.506 210.791 623.6 189.686C616.625 171.647 605.958 155.264 592.284 141.587C578.61 127.909 562.231 117.238 544.194 110.257C523.09 102.347 500.794 98.0819 478.26 97.6441C449.3 96.3183 440.048 96.0029 366.31 96.0029C292.572 96.0029 283.298 96.3111 254.324 97.6441" fill="white"/>
</g>
<defs>
<radialGradient id="paint0_radial_260_772" cx="0" cy="0" r="1" gradientUnits="userSpaceOnUse" gradientTransform="translate(47.3071 715.49) scale(928.098)">
<stop offset="0.09" stop-color="#FA8F21"/>
<stop offset="0.78" stop-color="#D82D7E"/>
</radialGradient>
<radialGradient id="paint1_radial_260_772" cx="0" cy="0" r="1" gradientUnits="userSpaceOnUse" gradientTransform="translate(506.339 692.012) scale(816.735)">
<stop offset="0.64" stop-color="#8C3AAA" stop-opacity="0"/>
<stop offset="1" stop-color="#8C3AAA"/>
</radialGradient>
<clipPath id="clip0_260_772">
<rect width="731" height="731" fill="white" transform="translate(0 0.5)"/>
</clipPath>
</defs>
</svg>
