<svg width="98" height="96" viewBox="0 0 98 96" fill="none" xmlns="http://www.w3.org/2000/svg">
<path d="M88.8968 29.6267L81.3823 38.4927C82.3169 41.7036 82.8184 45.1005 82.8184 48.6155C82.8184 68.6527 66.5225 84.9486 46.4853 84.9486C26.4486 84.9486 10.1517 68.6527 10.1517 48.6155C10.1517 28.5788 26.4486 12.2823 46.4853 12.2823C52.9239 12.2823 58.9796 13.9663 64.2297 16.9184L70.8766 9.07713C63.7843 4.67763 55.425 2.14255 46.4853 2.14255C20.8604 2.14255 0.0126953 22.9906 0.0126953 48.6155C0.0126953 74.2403 20.8604 95.0884 46.4853 95.0884C72.1101 95.0884 92.9582 74.2403 92.9582 48.6155C92.9582 41.8556 91.5051 35.4226 88.8968 29.6267Z" fill="#0C8FFC"/>
<path d="M51.6104 64.8936L28.6572 41.9404L39.8104 30.7872L50.6558 41.6326L85.958 -6.86646e-05L97.9875 10.2005L51.6104 64.8936Z" fill="#0C8FFC"/>
</svg>
