<svg width="20" height="20" viewBox="0 0 20 20" fill="none" xmlns="http://www.w3.org/2000/svg">
<path d="M9.03051 11.6486L18.3233 2.35575M9.14342 11.9389L11.4694 17.9199C11.6743 18.4468 11.7767 18.7103 11.9244 18.7872C12.0523 18.8539 12.2048 18.854 12.3328 18.7874C12.4805 18.7107 12.5833 18.4474 12.7888 17.9207L18.6215 2.97456C18.807 2.49914 18.8998 2.26143 18.849 2.10954C18.805 1.97762 18.7014 1.8741 18.5695 1.83004C18.4176 1.77929 18.1799 1.87206 17.7045 2.05759L2.75835 7.89023C2.2317 8.09575 1.96837 8.19852 1.89163 8.34623C1.8251 8.47428 1.82519 8.62673 1.89187 8.75471C1.96878 8.90233 2.23223 9.00478 2.75913 9.20969L8.74016 11.5356C8.84711 11.5772 8.90059 11.598 8.94562 11.6302C8.98553 11.6586 9.02044 11.6935 9.04891 11.7334C9.08103 11.7785 9.10183 11.8319 9.14342 11.9389Z" stroke="white" stroke-width="1.77006" stroke-linecap="round" stroke-linejoin="round"/>
</svg>
