<svg width="19" height="19" viewBox="0 0 19 19" fill="none" xmlns="http://www.w3.org/2000/svg">
<path d="M15.9633 10.1144C16.147 9.95696 16.2388 9.87825 16.2724 9.78459C16.302 9.70238 16.302 9.61246 16.2724 9.53025C16.2388 9.43659 16.147 9.35788 15.9633 9.20046L9.59066 3.73818C9.27452 3.4672 9.11645 3.33171 8.98262 3.32839C8.86631 3.32551 8.75521 3.37661 8.68171 3.46679C8.59713 3.57056 8.59713 3.77876 8.59713 4.19514V7.42653C6.99118 7.70748 5.52136 8.52124 4.42909 9.74308C3.23826 11.0752 2.57954 12.799 2.57861 14.5858V15.0462C3.36805 14.0952 4.3537 13.3261 5.46807 12.7915C6.45055 12.3202 7.51261 12.041 8.59713 11.9674V15.1197C8.59713 15.5361 8.59713 15.7443 8.68171 15.848C8.75521 15.9382 8.86631 15.9893 8.98262 15.9864C9.11645 15.9831 9.27452 15.8476 9.59066 15.5767L15.9633 10.1144Z" stroke="currentColor" stroke-width="1.50463" stroke-linecap="round" stroke-linejoin="round"/>
</svg>
