<svg width="18" height="18" viewBox="0 0 18 18" fill="none" xmlns="http://www.w3.org/2000/svg">
<path d="M-1.52588e-05 18L1.26523 13.3778C0.484484 12.0247 0.0742346 10.491 0.0749846 8.91825C0.0772346 4.00125 4.07848 0 8.99471 0C11.3805 0.00075 13.62 0.93 15.3045 2.616C16.9882 4.302 17.9152 6.543 17.9144 8.9265C17.9122 13.8443 13.911 17.8455 8.99471 17.8455C7.50222 17.8448 6.03147 17.4705 4.72872 16.7595L-1.52588e-05 18ZM4.94772 15.1448C6.20472 15.891 7.40472 16.338 8.99171 16.3387C13.0777 16.3387 16.4062 13.0133 16.4084 8.925C16.4099 4.8285 13.0972 1.5075 8.99771 1.506C4.90872 1.506 1.58248 4.8315 1.58098 8.919C1.58023 10.5878 2.06923 11.8372 2.89048 13.1445L2.14123 15.8805L4.94772 15.1448ZM13.488 11.0468C13.4325 10.9537 13.284 10.8982 13.0605 10.7865C12.8377 10.6748 11.742 10.1355 11.5372 10.0612C11.3332 9.987 11.1847 9.9495 11.0355 10.173C10.887 10.3958 10.4595 10.8982 10.3297 11.0468C10.2 11.1953 10.0695 11.214 9.84671 11.1023C9.62396 10.9905 8.90546 10.7557 8.05422 9.996C7.39197 9.405 6.94422 8.67525 6.81447 8.45175C6.68472 8.229 6.80097 8.10825 6.91197 7.99725C7.01247 7.8975 7.13472 7.737 7.24647 7.6065C7.35972 7.4775 7.39647 7.3845 7.47147 7.23525C7.54572 7.08675 7.50897 6.95625 7.45272 6.8445C7.39647 6.7335 6.95097 5.63625 6.76572 5.19C6.58422 4.75575 6.40047 4.81425 6.26397 4.8075L5.83647 4.8C5.68797 4.8 5.44647 4.8555 5.24247 5.079C5.03847 5.3025 4.46247 5.841 4.46247 6.93825C4.46247 8.0355 5.26122 9.09525 5.37222 9.24375C5.48397 9.39225 6.94347 11.6438 9.17921 12.609C9.71096 12.8385 10.1265 12.9757 10.4497 13.0785C10.9837 13.248 11.4697 13.224 11.8537 13.167C12.282 13.1032 13.1722 12.6277 13.3582 12.1073C13.5442 11.586 13.5442 11.1398 13.488 11.0468Z" fill="#25D366"/>
</svg>
