<svg width="8" height="12" viewBox="0 0 8 12" fill="none" xmlns="http://www.w3.org/2000/svg">
<path fill-rule="evenodd" clip-rule="evenodd" d="M4.00078 0.400024C4.21294 0.400024 4.41646 0.484312 4.56646 0.634336L6.96646 3.03434C7.27886 3.34676 7.27886 3.85329 6.96646 4.16571C6.65406 4.47813 6.1475 4.47813 5.8351 4.16571L4.00078 2.33139L2.16647 4.16571C1.85405 4.47813 1.34752 4.47813 1.03509 4.16571C0.722677 3.85329 0.722677 3.34676 1.03509 3.03434L3.43509 0.634336C3.58512 0.484312 3.7886 0.400024 4.00078 0.400024ZM1.03509 7.83434C1.34752 7.52194 1.85405 7.52194 2.16647 7.83434L4.00078 9.66866L5.8351 7.83434C6.1475 7.52194 6.65406 7.52194 6.96646 7.83434C7.27886 8.14674 7.27886 8.6533 6.96646 8.9657L4.56646 11.3657C4.25406 11.6781 3.74752 11.6781 3.43509 11.3657L1.03509 8.9657C0.722677 8.6533 0.722677 8.14674 1.03509 7.83434Z" fill="black" fill-opacity="0.7"/>
</svg>
