<svg width="19" height="19" viewBox="0 0 19 19" fill="none" xmlns="http://www.w3.org/2000/svg">
<g clip-path="url(#clip0_12_1242)">
<path d="M9.81221 13.419C9.81221 15.4965 11.4963 17.1806 13.5738 17.1806C15.6512 17.1806 17.3354 15.4965 17.3354 13.419C17.3354 11.3415 15.6512 9.65743 13.5738 9.65743C11.4963 9.65743 9.81221 11.3415 9.81221 13.419ZM9.81221 13.419C9.81221 12.572 10.0921 11.7904 10.5645 11.1617V4.39123M9.81221 13.419C9.81221 14.0399 9.96266 14.6257 10.2291 15.1419C9.5953 15.6773 8.13142 16.0521 6.42679 16.0521C4.14159 16.0521 2.28906 15.3785 2.28906 14.5475V4.39123M10.5645 4.39123C10.5645 5.22221 8.712 5.89586 6.42679 5.89586C4.14159 5.89586 2.28906 5.22221 2.28906 4.39123M10.5645 4.39123C10.5645 3.56024 8.712 2.8866 6.42679 2.8866C4.14159 2.8866 2.28906 3.56024 2.28906 4.39123M2.28906 11.1621C2.28906 11.993 4.14159 12.6667 6.42679 12.6667C8.07361 12.6667 9.49573 12.3168 10.1618 11.8104M10.5645 7.77664C10.5645 8.60763 8.712 9.28127 6.42679 9.28127C4.14159 9.28127 2.28906 8.60763 2.28906 7.77664" stroke="#A8A8A8" stroke-width="1.50463" stroke-linecap="round" stroke-linejoin="round"/>
</g>
<defs>
<clipPath id="clip0_12_1242">
<rect width="18.0556" height="18.0556" fill="white" transform="translate(0.784668 0.629639)"/>
</clipPath>
</defs>
</svg>
