<svg width="17" height="14" viewBox="0 0 17 14" fill="none" xmlns="http://www.w3.org/2000/svg">
<path d="M3.24397 10.8156C3.58914 10.8156 3.86897 10.5358 3.86897 10.1906C3.86897 9.84546 3.58914 9.56564 3.24397 9.56564V10.8156ZM3.51182 5.93734L3.44875 6.55915C3.62458 6.57699 3.79975 6.51955 3.93087 6.40105C4.062 6.28255 4.13682 6.11408 4.13682 5.93734H3.51182ZM3.51182 5.92384V5.29884C3.16665 5.29884 2.88682 5.57866 2.88682 5.92384H3.51182ZM3.54498 5.92384V6.54884C3.72542 6.54884 3.89705 6.47086 4.01574 6.33495C4.13443 6.19904 4.18859 6.01847 4.16429 5.83967L3.54498 5.92384ZM11.5328 3.50289L11.0004 3.83024C11.1299 4.04086 11.3714 4.15534 11.6164 4.12227L11.5328 3.50289ZM12.985 9.45088C12.6503 9.53534 12.4475 9.87512 12.5319 10.2098C12.6164 10.5445 12.9562 10.7473 13.2909 10.6629L12.985 9.45088ZM7.58989 13.1665C7.58989 13.5117 7.86971 13.7915 8.21489 13.7915C8.56007 13.7915 8.83989 13.5117 8.83989 13.1665H7.58989ZM8.21489 7.52138L8.64431 7.06726C8.40328 6.83935 8.02618 6.83944 7.78526 7.06746L8.21489 7.52138ZM5.3255 9.3956C5.0748 9.63287 5.06393 10.0285 5.30121 10.2791C5.53848 10.5298 5.93406 10.5407 6.18476 10.3034L5.3255 9.3956ZM10.2476 10.3036C10.4984 10.5408 10.894 10.5297 11.1311 10.2789C11.3683 10.0281 11.3572 9.63255 11.1064 9.39539L10.2476 10.3036ZM3.24397 9.56564C2.14178 9.56564 1.45825 8.90675 1.45825 8.13582H0.208252C0.208252 9.80818 1.68335 10.8156 3.24397 10.8156V9.56564ZM1.45825 8.13582C1.45825 7.30889 2.20604 6.54884 3.24397 6.54884V5.29884C1.61909 5.29884 0.208252 6.51947 0.208252 8.13582H1.45825ZM3.24397 6.54884C3.31341 6.54884 3.38173 6.55235 3.44875 6.55915L3.5749 5.31553C3.46602 5.30449 3.3556 5.29884 3.24397 5.29884V6.54884ZM4.13682 5.93734V5.92384H2.88682V5.93734H4.13682ZM3.51182 6.54884H3.54498V5.29884H3.51182V6.54884ZM4.16429 5.83967C4.14618 5.70643 4.13682 5.5705 4.13682 5.43229H2.88682C2.88682 5.62702 2.90001 5.81919 2.92567 6.00801L4.16429 5.83967ZM4.13682 5.43229C4.13682 3.65519 5.72408 2.12488 7.79754 2.12488V0.874878C5.13713 0.874878 2.88682 2.86577 2.88682 5.43229H4.13682ZM7.79754 2.12488C9.19171 2.12488 10.3833 2.82664 11.0004 3.83024L12.0652 3.17554C11.212 1.7878 9.60901 0.874878 7.79754 0.874878V2.12488ZM11.6164 4.12227C11.7684 4.10176 11.9243 4.09108 12.0833 4.09108V2.84108C11.8683 2.84108 11.6565 2.85552 11.4492 2.88351L11.6164 4.12227ZM12.0833 4.09108C13.8608 4.09108 15.2083 5.40132 15.2083 6.90694H16.4583C16.4583 4.6119 14.4478 2.84108 12.0833 2.84108V4.09108ZM15.2083 6.90694C15.2083 8.12277 14.3303 9.11136 12.985 9.45088L13.2909 10.6629C15.0608 10.2162 16.4583 8.81978 16.4583 6.90694H15.2083ZM8.83989 13.1665V7.52138H7.58989V13.1665H8.83989ZM7.78526 7.06746L5.3255 9.3956L6.18476 10.3034L8.64452 7.9753L7.78526 7.06746ZM7.78548 7.97551L10.2476 10.3036L11.1064 9.39539L8.64431 7.06726L7.78548 7.97551Z" fill="black"/>
</svg>
